<svg id="Layer_1" data-name="Layer 1" xmlns="http://www.w3.org/2000/svg" xmlns:xlink="http://www.w3.org/1999/xlink" viewBox="0 0 716.67 294"><defs><style>.cls-1,.cls-3,.cls-6{fill:none;}.cls-2{clip-path:url(#clip-path);}.cls-3{stroke:#000;stroke-linecap:round;stroke-linejoin:round;stroke-width:1.56px;}.cls-4{font-size:18px;font-family:ArialMT, Arial;}.cls-4,.cls-7{fill:#231815;}.cls-5{fill:#fff;}.cls-5,.cls-6{stroke:#231815;stroke-miterlimit:10;}</style><clipPath id="clip-path"><polyline class="cls-1" points="676.43 290.3 676.43 -11.38 -14.65 -11.38 -14.65 290.3 676.43 290.3"/></clipPath></defs><title>Drawing1-模型</title><g class="cls-2"><path class="cls-3" d="M378.82,95.76a41,41,0,1,0-67.05,0"/><path class="cls-3" d="M656.87,121.4A65.58,65.58,0,1,0,591.29,187a65.58,65.58,0,0,0,65.58-65.58"/><path class="cls-3" d="M541.68,92.3a41,41,0,1,0,58,58"/><line class="cls-3" x1="548.63" y1="87.74" x2="551.03" y2="85.34"/><line class="cls-3" x1="554.39" y1="86.3" x2="558.59" y2="82.1"/><line class="cls-3" x1="558.71" y1="86.42" x2="564.23" y2="80.78"/><line class="cls-3" x1="562.31" y1="87.14" x2="569.15" y2="80.3"/><line class="cls-3" x1="565.43" y1="88.34" x2="573.47" y2="80.3"/><line class="cls-3" x1="568.07" y1="90.02" x2="577.31" y2="80.78"/><line class="cls-3" x1="570.47" y1="91.94" x2="580.91" y2="81.5"/><line class="cls-3" x1="572.51" y1="94.22" x2="584.27" y2="82.58"/><line class="cls-3" x1="574.31" y1="96.86" x2="587.39" y2="83.78"/><line class="cls-3" x1="575.63" y1="99.86" x2="590.27" y2="85.22"/><line class="cls-3" x1="576.59" y1="103.34" x2="593.03" y2="86.78"/><line class="cls-3" x1="576.83" y1="107.42" x2="595.55" y2="88.58"/><line class="cls-3" x1="575.99" y1="112.58" x2="597.95" y2="90.5"/><line class="cls-3" x1="567.71" y1="125.18" x2="600.23" y2="92.66"/><line class="cls-3" x1="565.07" y1="132.26" x2="602.27" y2="94.94"/><line class="cls-3" x1="564.71" y1="136.82" x2="604.19" y2="97.46"/><line class="cls-3" x1="565.31" y1="140.66" x2="605.87" y2="99.98"/><line class="cls-3" x1="566.39" y1="143.9" x2="607.43" y2="102.86"/><line class="cls-3" x1="567.83" y1="146.78" x2="608.87" y2="105.86"/><line class="cls-3" x1="569.75" y1="149.3" x2="609.95" y2="108.98"/><line class="cls-3" x1="571.91" y1="151.46" x2="610.91" y2="112.46"/><line class="cls-3" x1="574.43" y1="153.26" x2="611.51" y2="116.18"/><line class="cls-3" x1="577.31" y1="154.82" x2="611.87" y2="120.26"/><line class="cls-3" x1="580.55" y1="155.78" x2="611.63" y2="124.7"/><line class="cls-3" x1="584.39" y1="156.38" x2="610.91" y2="129.86"/><line class="cls-3" x1="589.07" y1="156.02" x2="609.11" y2="135.98"/><line class="cls-3" x1="596.39" y1="153.02" x2="603.83" y2="145.7"/><path class="cls-3" d="M570.83,121.21a20.46,20.46,0,1,0,28.93,28.93"/><path class="cls-3" d="M570.72,121.11a20.46,20.46,0,0,0-28.93-28.93"/><path class="cls-3" d="M311.74,95.76A82,82,0,0,0,272.31,208"/><path class="cls-3" d="M418.27,208A82,82,0,0,0,378.85,95.76"/><path class="cls-3" d="M599.75,150.14a41,41,0,0,0-58-58"/><path class="cls-3" d="M140.27,51.68a41,41,0,1,0-41,41,41,41,0,0,0,41-41"/><path class="cls-3" d="M181.6,193.49a82,82,0,0,0-164,0c0,45.3,38.72,82,84,82s80-36.72,80-82"/><line class="cls-3" x1="272.39" y1="208.1" x2="418.31" y2="208.1"/></g><text class="cls-4" transform="translate(71.33 58.67)">Booked</text><text class="cls-4" transform="translate(62.05 198.29)">Bookable</text><text class="cls-4" transform="translate(313.33 143.67)">Optimal</text><text class="cls-4" transform="translate(629.25 208)">Booking</text><text class="cls-4" transform="translate(621.75 51.33)">Canceling</text><text class="cls-4" transform="translate(465.33 51.33)">Reserved</text><line class="cls-5" x1="503.33" y1="61.33" x2="548" y2="115.33"/><line class="cls-6" x1="661.33" y1="62.67" x2="586" y2="100.67"/><line class="cls-6" x1="619.33" y1="160" x2="638" y2="188"/><polygon class="cls-7" points="230.58 113.46 256.83 119.46 230.58 125.46 230.58 113.46"/><line class="cls-6" x1="192.25" y1="119.46" x2="244.77" y2="119.46"/><polygon class="cls-7" points="477.58 113.46 503.83 119.46 477.58 125.46 477.58 113.46"/><line class="cls-6" x1="439.25" y1="119.46" x2="491.77" y2="119.46"/></svg>